<svg xmlns="http://www.w3.org/2000/svg" viewBox="0 0 512 512"><defs><style>.cls-1{fill:#fff;}.cls-2{fill:#f80;}.cls-3{fill:#054ada;}</style></defs><g id="background"><rect class="cls-1" width="512" height="512"/></g><g id="Logo"><path class="cls-2" d="M55.7,239.7H96.49v11.47l-15.34,1.18c-24.77,1.85-32.53,8.42-32.53,26.8v3.71c0,13.48,9.44,21.57,23.94,21.57,11.46,0,18-2.7,26.13-11H100v8.77h16.35v-80.4H55.7Zm40.79,38.77c-5,5.06-12.64,8.43-18.88,8.43-6.74,0-9.6-2.53-9.44-8.09.17-7.76,3-9.61,16-10.79l12.3-1.18Z"/><path class="cls-3" d="M438.85,254.2,426.71,253c-6.74-.67-8.43-2.36-8.43-7.75,0-6.07,2.36-7.59,11.8-7.59,8.43,0,10.79,1.35,12,7.08h18.88c-.51-19.22-6.41-24.1-29.84-24.1-25.62,0-32,4.88-32,24.61,0,18,4.72,22.92,23.77,24.77l9.95,1c8.93.85,11.12,2.53,11.12,7.93,0,6.57-2.7,8.26-13.65,8.26-9.61,0-12.14-1.52-12.64-7.76H398.56c.5,19.89,6.57,24.95,30.85,24.95,27,0,33.71-5.39,33.71-27.31C463.12,260.77,458.23,256.05,438.85,254.2Z"/><path class="cls-3" d="M337.71,255.72c0-26-8.94-35.06-34.56-35.06-25.28,0-35.23,11.79-35.23,41.12,0,32,8.77,42.65,37.09,42.65,20.39,0,29-6.23,31.85-23.77H317.48c-2.19,5.4-4.55,6.58-12.81,6.58-12.47,0-15.68-3.54-16.35-18.54h48A77.59,77.59,0,0,0,337.71,255.72Zm-49.22-2.87c.17-11.29,4.72-15.51,15.5-15.51,10.29,0,14.5,4.22,14.84,15.51Z"/><polygon class="cls-3" points="182.8 221.84 151.28 221.84 151.28 197.73 131.22 197.73 131.22 302.24 151.28 302.24 151.28 239.87 179.93 239.87 179.93 302.24 199.99 302.24 199.99 238.19 182.8 238.19 182.8 221.84"/><path class="cls-3" d="M349,225.37v76.87h20.06V239h24.1V221.84h-24.1v-2.2c.17-4.72,1.35-6.06,5.23-6.06H396.2V197.73H372.6C356.59,197.73,349,202.62,349,225.37Z"/><polygon class="cls-3" points="214.82 302.24 234.88 302.24 234.88 240.71 264.72 240.71 264.72 221.84 214.82 221.84 214.82 302.24"/></g></svg>